<?xml version="1.0" encoding="UTF-8" standalone="no"?>
<!DOCTYPE svg PUBLIC "-//W3C//DTD SVG 1.1//EN" "http://www.w3.org/Graphics/SVG/1.1/DTD/svg11.dtd">
<svg width="100%" height="100%" viewBox="0 0 591 591" version="1.1" xmlns="http://www.w3.org/2000/svg" xmlns:xlink="http://www.w3.org/1999/xlink" xml:space="preserve" xmlns:serif="http://www.serif.com/" style="fill-rule:evenodd;clip-rule:evenodd;stroke-linejoin:round;stroke-miterlimit:2;">
    <g transform="matrix(1,0,0,1,0.3445,0.22)">
        <path d="M300.859,6.143C308.102,6.143 313.974,12.014 313.974,19.257L313.974,55.528C313.974,62.771 308.102,68.643 300.859,68.643L81.633,68.643C74.389,68.643 68.518,74.514 68.518,81.757L68.518,521.892C68.581,521.907 68.647,521.915 68.712,521.915C201.05,521.917 498.618,521.917 520.515,521.918C520.555,522.249 520.847,522.491 521.18,522.471C521.514,522.45 521.773,522.174 521.773,521.84C521.793,517.599 521.793,339.839 521.793,289.576C521.793,282.333 527.664,276.462 534.907,276.462L571.178,276.462C578.421,276.462 584.293,282.333 584.293,289.576L584.293,571.303C584.293,574.781 582.911,578.117 580.451,580.576C577.992,583.036 574.656,584.417 571.178,584.417L19.133,584.417C15.654,584.417 12.319,583.036 9.859,580.576C7.4,578.117 6.018,574.781 6.018,571.303L6.018,19.257C6.018,15.779 7.4,12.443 9.859,9.984C12.318,7.524 15.654,6.143 19.133,6.143L300.859,6.143Z"/>
        <g transform="matrix(0.707107,-0.707107,0.707107,0.707107,53.6846,135.343)">
            <path d="M291.862,236.558C295.341,236.558 298.676,235.177 301.136,232.717C303.595,230.258 304.977,226.922 304.977,223.444L304.977,153.923C304.977,148.618 308.172,143.836 313.073,141.806C317.974,139.776 323.615,140.898 327.365,144.649C363.3,180.584 432.342,249.626 457.281,274.565C462.403,279.687 462.403,287.99 457.281,293.112C432.342,318.051 363.3,387.093 327.365,423.028C323.615,426.779 317.974,427.901 313.073,425.871C308.172,423.841 304.977,419.059 304.977,413.754L304.977,344.233C304.977,340.755 303.595,337.419 301.136,334.96C298.676,332.5 295.341,331.119 291.862,331.119L76.24,331.119C68.997,331.119 63.125,325.247 63.125,318.004L63.125,249.673C63.125,242.43 68.997,236.558 76.24,236.558L291.862,236.558Z"/>
        </g>
    </g>
</svg>
