<?xml version="1.0" encoding="UTF-8" standalone="no"?>
<!DOCTYPE svg PUBLIC "-//W3C//DTD SVG 1.1//EN" "http://www.w3.org/Graphics/SVG/1.1/DTD/svg11.dtd">
<svg width="100%" height="100%" viewBox="0 0 591 591" version="1.1" xmlns="http://www.w3.org/2000/svg" xmlns:xlink="http://www.w3.org/1999/xlink" xml:space="preserve" xmlns:serif="http://www.serif.com/" style="fill-rule:evenodd;clip-rule:evenodd;stroke-linejoin:round;stroke-miterlimit:2;">
    <g transform="matrix(1,0,0,1,0.00658013,-6.82297)">
        <path d="M80.09,263.364C79.252,255.631 78.822,247.774 78.822,239.818C78.822,120.358 175.808,23.371 295.269,23.371C414.73,23.371 511.716,120.358 511.716,239.818C511.716,247.774 511.286,255.631 510.448,263.364L546.791,263.364C556.71,263.364 566.222,267.304 573.236,274.318C580.25,281.332 584.19,290.844 584.19,300.763L584.19,543.427C584.19,553.346 580.25,562.859 573.236,569.872C566.222,576.886 556.71,580.826 546.791,580.826L43.747,580.826C33.828,580.826 24.316,576.886 17.302,569.872C10.288,562.859 6.348,553.346 6.348,543.427L6.348,300.763C6.348,290.844 10.288,281.332 17.302,274.318C24.316,267.304 33.828,263.364 43.747,263.364L80.09,263.364ZM334.401,378.328C334.401,367.86 325.915,359.374 315.447,359.374C303.204,359.374 287.334,359.374 275.091,359.374C264.623,359.374 256.137,367.86 256.137,378.328C256.137,403.748 256.137,448.618 256.137,474.037C256.137,484.505 264.623,492.992 275.091,492.992C287.334,492.992 303.204,492.992 315.447,492.992C325.915,492.992 334.401,484.505 334.401,474.037C334.401,448.618 334.401,403.748 334.401,378.328ZM413.636,263.364L176.902,263.364C175.393,255.751 174.602,247.876 174.602,239.818C174.602,173.22 228.671,119.151 295.269,119.151C361.867,119.151 415.936,173.22 415.936,239.818C415.936,247.876 415.145,255.751 413.636,263.364Z"/>
    </g>
</svg>
