<?xml version="1.0" encoding="UTF-8" standalone="no"?>
<!DOCTYPE svg PUBLIC "-//W3C//DTD SVG 1.1//EN" "http://www.w3.org/Graphics/SVG/1.1/DTD/svg11.dtd">
<svg width="100%" height="100%" viewBox="0 0 591 591" version="1.1" xmlns="http://www.w3.org/2000/svg" xmlns:xlink="http://www.w3.org/1999/xlink" xml:space="preserve" xmlns:serif="http://www.serif.com/" style="fill-rule:evenodd;clip-rule:evenodd;stroke-linejoin:round;stroke-miterlimit:2;">
    <g transform="matrix(1,0,0,1,1.95558,10.9504)">
        <path d="M338.659,6.176C308.623,1.384 278.017,1.384 247.981,6.176C247.981,6.176 240.38,32.48 234.854,51.601C231.48,63.277 222.843,72.706 211.506,77.088C199.764,81.576 188.419,87.039 177.581,93.408C167.091,99.536 154.34,100.41 143.112,95.77C124.711,88.183 99.407,77.726 99.407,77.726C76.933,98.221 57.85,122.15 42.87,148.621C42.87,148.621 58.696,170.964 70.2,187.206C77.225,197.124 79.211,209.755 75.569,221.351C71.757,233.329 68.955,245.606 67.177,258.05C65.427,270.072 58.16,280.586 47.532,286.471C30.128,296.128 6.175,309.392 6.175,309.392C8.187,339.741 14.997,369.58 26.353,397.796C26.353,397.796 53.689,399.354 73.56,400.486C85.694,401.178 96.808,407.5 103.603,417.577C110.591,428.026 118.442,437.871 127.063,447.02C135.371,455.884 139.061,468.121 137.035,480.1C133.734,499.727 129.169,526.724 129.169,526.724C154.152,544.074 181.727,557.353 210.867,566.068C210.867,566.068 229.129,545.667 242.403,530.837C250.51,521.781 262.382,517.034 274.497,518.005C287.024,519.056 299.616,519.056 312.144,518.02C324.254,517.051 336.122,521.796 344.224,530.848C357.511,545.667 375.773,566.068 375.773,566.068C404.913,557.353 432.488,544.074 457.471,526.724C457.471,526.724 452.906,499.727 449.588,480.102C447.563,468.118 451.254,455.876 459.566,447.009C468.198,437.871 476.049,428.026 483.05,417.586C489.843,407.513 500.952,401.194 513.081,400.502C532.951,399.354 560.287,397.796 560.287,397.796C571.643,369.58 578.453,339.741 580.465,309.392C580.465,309.392 556.512,296.128 539.1,286.486C528.468,280.598 521.198,270.08 519.448,258.052C517.685,245.606 514.883,233.329 511.086,221.346C507.446,209.755 509.431,197.129 516.454,187.216C527.944,170.964 543.77,148.621 543.77,148.621C528.79,122.15 509.707,98.221 487.233,77.726C487.233,77.726 461.929,88.183 443.534,95.785C432.302,100.427 419.545,99.552 409.051,93.422C398.221,87.039 386.876,81.576 375.139,77.073C363.808,72.693 355.175,63.268 351.802,51.597C346.26,32.48 338.659,6.176 338.659,6.176ZM293.32,121.762C386.371,121.762 461.916,197.307 461.916,290.358C461.916,383.408 386.371,458.953 293.32,458.953C200.269,458.953 124.724,383.408 124.724,290.358C124.724,197.307 200.269,121.762 293.32,121.762Z"/>
    </g>
</svg>
